<?xml version="1.0" encoding="UTF-8"?>
<svg id="Layer_1" data-name="Layer 1" xmlns="http://www.w3.org/2000/svg" viewBox="0 0 487.16 178.08">
  <defs>
    <style>
      .cls-1 {
        fill: #2b378b;
      }

      .cls-2 {
        fill: #808285;
      }

      .cls-3 {
        fill: #8db23e;
      }
    </style>
  </defs>
  <path class="cls-2" d="M198.37,130.56l1.87,7.01h-3.74l1.87-7.01Zm-1-1.16l-3.83,13.38h1.59l1.02-3.86h4.45l1.07,3.86h1.59l-3.88-13.38h-2Zm8.97,1.3h1.98c1.29,0,2.18,.36,2.65,1.09,.48,.72,.71,2.17,.71,4.33,0,1.23-.07,2.19-.22,2.87-.15,.68-.38,1.25-.71,1.71-.21,.28-.49,.49-.85,.61-.36,.13-.87,.19-1.53,.19h-2.03v-10.81Zm-1.57-1.3v13.38h3.63c.94,0,1.64-.08,2.11-.25,.48-.16,.9-.44,1.28-.84,.55-.57,.96-1.35,1.22-2.32,.26-.98,.39-2.22,.39-3.72,0-2.14-.38-3.71-1.13-4.73-.75-1.01-1.92-1.52-3.52-1.52h-3.97Zm17.77,0l-3.24,11.53-3.15-11.53h-1.7l3.92,13.38h1.89l3.87-13.38h-1.57Zm2.89,13.38h1.6v-13.38h-1.6v13.38Zm26.58-12.07h2.21c1.01,0,1.75,.18,2.2,.55,.46,.37,.68,.97,.68,1.78s-.26,1.48-.77,1.88c-.51,.4-1.32,.61-2.42,.61h-1.9v-4.82Zm-1.53-1.31v13.38h1.53v-5.94h2c1.07,0,1.82,.17,2.23,.51,.42,.34,.67,.97,.75,1.89,.03,.34,.06,.79,.09,1.37,.05,1.15,.18,1.87,.37,2.18h1.94c-.4-.32-.64-1.21-.74-2.67-.04-.57-.07-1.02-.1-1.35-.09-.87-.32-1.52-.71-1.94-.39-.42-.97-.66-1.75-.72,.89-.21,1.54-.59,1.97-1.13,.43-.53,.64-1.25,.64-2.15,0-1.16-.35-2.02-1.06-2.59-.7-.56-1.78-.85-3.24-.85h-3.94Zm17.58,0l-3.24,6.59-3.1-6.59h-1.87l4.15,8.2v5.18h1.59v-5.18l4.18-8.2h-1.7Zm37.03,0v13.38h7.17v-1.44h-5.6v-11.94h-1.57Zm15.27,0v9c0,1.15-.22,2-.65,2.54-.43,.54-1.1,.81-2.01,.81s-1.53-.24-1.91-.73c-.37-.49-.56-1.36-.56-2.61v-9h-1.57v8.73c0,1.13,.05,1.93,.15,2.4,.1,.47,.27,.86,.5,1.16,.34,.45,.8,.79,1.39,1.03,.58,.24,1.24,.36,1.98,.36s1.36-.11,1.92-.34c.56-.22,1.04-.55,1.42-.98,.32-.36,.54-.77,.67-1.24,.13-.46,.2-1.26,.2-2.39v-8.73h-1.53Zm3.05,0v1.37h3.58v12.01h1.6v-12.01h3.36v-1.37h-8.55Zm10.05,13.38h1.6v-13.38h-1.6v13.38Zm21.86-13.38l.15,11.48-4.87-11.48h-2.1v13.38h1.51l-.13-11.82,4.94,11.82h2.01v-13.38h-1.51Zm26.43,0v1.37h3.58v12.01h1.6v-12.01h3.36v-1.37h-8.55Zm10.05,0v13.38h7.02v-1.41h-5.47v-4.93h5.06v-1.36h-5.06v-4.3h5.41v-1.39h-6.96Zm26.53,0v5.52h-5.23v-5.52h-1.6v13.38h1.6v-6.52h5.23v6.52h1.6v-13.38h-1.6Zm10.92,0l.15,11.48-4.87-11.48h-2.1v13.38h1.51l-.13-11.82,4.94,11.82h2.01v-13.38h-1.51Zm14.95,0v13.38h7.17v-1.44h-5.6v-11.94h-1.57Zm36.54,0l-3.24,6.59-3.1-6.59h-1.87l4.15,8.2v5.18h1.59v-5.18l4.18-8.2h-1.7Zm-250.29,.67c-.68,.66-1.01,1.57-1.01,2.73,0,.6,.09,1.13,.29,1.59,.19,.46,.48,.85,.87,1.18,.24,.2,.92,.49,2.06,.89,.41,.14,.72,.26,.95,.34,.95,.34,1.56,.68,1.83,1.02,.27,.34,.4,.82,.4,1.45,0,.78-.22,1.4-.67,1.84-.44,.44-1.05,.67-1.83,.67-.86,0-1.52-.23-1.95-.7-.44-.46-.66-1.15-.66-2.06v-.48h-1.5s0,.12,0,.22c0,.1,0,.18,0,.22,0,1.35,.33,2.37,1,3.07,.67,.7,1.66,1.04,2.96,1.04s2.34-.35,3.07-1.06c.74-.71,1.1-1.69,1.1-2.96,0-.61-.09-1.14-.25-1.58-.17-.44-.42-.82-.77-1.12-.29-.25-1.16-.64-2.62-1.16-.23-.08-.4-.14-.51-.18-.96-.34-1.58-.68-1.87-1.03-.28-.35-.43-.84-.43-1.47,0-.67,.21-1.19,.63-1.59,.42-.39,.99-.59,1.72-.59s1.25,.2,1.64,.61c.39,.41,.58,.99,.58,1.74v.14h1.44s0-.09,0-.17c0-.08,.01-.13,.01-.17,0-1.07-.32-1.91-.97-2.52-.65-.61-1.54-.91-2.68-.91-1.21,0-2.14,.33-2.82,.99m11.07,10.48c-.43-.82-.64-2.31-.64-4.46s.21-3.63,.64-4.45c.43-.82,1.17-1.23,2.23-1.23s1.81,.4,2.23,1.2c.42,.8,.63,2.29,.63,4.48s-.21,3.68-.63,4.49c-.42,.8-1.17,1.2-2.23,1.2s-1.8-.41-2.23-1.23m-1.21-9.83c-.71,1.09-1.06,2.88-1.06,5.37s.36,4.26,1.07,5.36c.71,1.1,1.85,1.65,3.43,1.65s2.75-.54,3.45-1.62c.7-1.08,1.04-2.88,1.04-5.39s-.35-4.31-1.05-5.39c-.7-1.08-1.85-1.62-3.45-1.62s-2.73,.55-3.44,1.64m44.75-.65c-.67,.66-1.01,1.57-1.01,2.73,0,.6,.09,1.13,.29,1.59,.19,.46,.48,.85,.87,1.18,.24,.2,.92,.49,2.06,.89,.4,.14,.72,.26,.95,.34,.95,.34,1.56,.68,1.83,1.02,.27,.34,.4,.82,.4,1.45,0,.78-.22,1.4-.67,1.84-.44,.44-1.05,.67-1.83,.67-.86,0-1.51-.23-1.95-.7-.44-.46-.66-1.15-.66-2.06v-.48h-1.5s0,.12,0,.22,0,.18,0,.22c0,1.35,.34,2.37,1,3.07,.67,.7,1.66,1.04,2.96,1.04s2.34-.35,3.07-1.06c.74-.71,1.1-1.69,1.1-2.96,0-.61-.08-1.14-.25-1.58-.17-.44-.42-.82-.77-1.12-.29-.25-1.16-.64-2.62-1.16-.23-.08-.4-.14-.51-.18-.96-.34-1.58-.68-1.87-1.03-.28-.35-.43-.84-.43-1.47,0-.67,.21-1.19,.63-1.59,.42-.39,1-.59,1.72-.59s1.25,.2,1.64,.61c.39,.41,.58,.99,.58,1.74v.14h1.44s0-.09,0-.17c0-.08,.01-.13,.01-.17,0-1.07-.33-1.91-.97-2.52-.65-.61-1.54-.91-2.69-.91-1.2,0-2.14,.33-2.82,.99m11.08,10.48c-.43-.82-.64-2.31-.64-4.46s.21-3.63,.64-4.45c.43-.82,1.17-1.23,2.22-1.23s1.81,.4,2.23,1.2c.42,.8,.63,2.29,.63,4.48s-.21,3.68-.63,4.49c-.42,.8-1.16,1.2-2.23,1.2s-1.8-.41-2.22-1.23m-1.21-9.83c-.71,1.09-1.06,2.88-1.06,5.37s.36,4.26,1.06,5.36c.71,1.1,1.86,1.65,3.43,1.65s2.75-.54,3.45-1.62c.7-1.08,1.05-2.88,1.05-5.39s-.35-4.31-1.05-5.39c-.7-1.08-1.85-1.62-3.45-1.62s-2.73,.55-3.43,1.64m44.63,9.83c-.43-.82-.64-2.31-.64-4.46s.21-3.63,.64-4.45c.43-.82,1.17-1.23,2.23-1.23s1.81,.4,2.23,1.2c.42,.8,.63,2.29,.63,4.48s-.21,3.68-.63,4.49c-.42,.8-1.16,1.2-2.23,1.2s-1.8-.41-2.23-1.23m-1.21-9.83c-.71,1.09-1.06,2.88-1.06,5.37s.36,4.26,1.07,5.36c.71,1.1,1.85,1.65,3.43,1.65s2.75-.54,3.45-1.62c.7-1.08,1.05-2.88,1.05-5.39s-.35-4.31-1.05-5.39c-.7-1.08-1.85-1.62-3.45-1.62s-2.73,.55-3.44,1.64m21.9-.65c-.67,.66-1.01,1.57-1.01,2.73,0,.6,.1,1.13,.29,1.59,.19,.46,.48,.85,.87,1.18,.24,.2,.92,.49,2.06,.89,.4,.14,.72,.26,.95,.34,.95,.34,1.56,.68,1.83,1.02,.27,.34,.41,.82,.41,1.45,0,.78-.22,1.4-.67,1.84-.44,.44-1.06,.67-1.83,.67-.86,0-1.51-.23-1.95-.7-.44-.46-.66-1.15-.66-2.06v-.48h-1.5s0,.12,0,.22c0,.1-.01,.18-.01,.22,0,1.35,.34,2.37,1,3.07,.67,.7,1.65,1.04,2.96,1.04s2.34-.35,3.07-1.06c.73-.71,1.1-1.69,1.1-2.96,0-.61-.08-1.14-.25-1.58-.17-.44-.43-.82-.77-1.12-.28-.25-1.16-.64-2.62-1.16-.22-.08-.39-.14-.51-.18-.96-.34-1.58-.68-1.87-1.03-.29-.35-.43-.84-.43-1.47,0-.67,.21-1.19,.63-1.59,.42-.39,.99-.59,1.72-.59s1.25,.2,1.64,.61c.39,.41,.58,.99,.58,1.74v.14h1.44s0-.09,.01-.17c0-.08,0-.13,0-.17,0-1.07-.32-1.91-.97-2.52-.65-.61-1.54-.91-2.69-.91-1.2,0-2.14,.33-2.81,.99m41.46,.68c-.69,1.11-1.03,2.9-1.03,5.38s.35,4.13,1.04,5.27c.7,1.14,1.77,1.71,3.21,1.71,1.35,0,2.39-.45,3.11-1.34,.72-.9,1.09-2.19,1.11-3.89h-1.55v.21c0,1.15-.21,2.04-.64,2.66-.43,.62-1.04,.93-1.84,.93-.99,0-1.7-.43-2.13-1.27-.43-.85-.65-2.28-.65-4.28s.21-3.52,.63-4.4c.42-.88,1.11-1.33,2.06-1.33,.78,0,1.39,.26,1.84,.78,.45,.52,.67,1.24,.67,2.16h1.51v-.17c0-1.31-.35-2.32-1.04-3.03-.7-.71-1.68-1.06-2.97-1.06-1.54,0-2.65,.55-3.34,1.67m33.54,9.8c-.43-.82-.64-2.31-.64-4.46s.21-3.63,.64-4.45c.43-.82,1.17-1.23,2.23-1.23s1.81,.4,2.23,1.2c.42,.8,.63,2.29,.63,4.48s-.21,3.68-.63,4.49c-.42,.8-1.17,1.2-2.23,1.2s-1.8-.41-2.23-1.23m-1.21-9.83c-.71,1.09-1.06,2.88-1.06,5.37s.35,4.26,1.07,5.36c.71,1.1,1.85,1.65,3.43,1.65s2.75-.54,3.45-1.62c.7-1.08,1.05-2.88,1.05-5.39s-.35-4.31-1.05-5.39c-.7-1.08-1.85-1.62-3.45-1.62s-2.73,.55-3.44,1.64m20.01,9.83c-.43-.82-.64-2.31-.64-4.46s.21-3.63,.64-4.45c.43-.82,1.17-1.23,2.23-1.23s1.81,.4,2.23,1.2c.42,.8,.63,2.29,.63,4.48s-.21,3.68-.63,4.49c-.42,.8-1.17,1.2-2.23,1.2s-1.8-.41-2.23-1.23m-1.21-9.83c-.71,1.09-1.06,2.88-1.06,5.37s.36,4.26,1.07,5.36c.71,1.1,1.86,1.65,3.43,1.65s2.75-.54,3.45-1.62c.7-1.08,1.05-2.88,1.05-5.39s-.35-4.31-1.05-5.39c-.7-1.08-1.85-1.62-3.45-1.62s-2.73,.55-3.44,1.64m11,0c-.75,1.1-1.13,2.85-1.13,5.28s.36,4.23,1.07,5.38c.71,1.15,1.83,1.72,3.34,1.72,.78,0,1.45-.19,2.01-.56,.56-.37,.96-.91,1.22-1.61l.09,1.85h1.21v-6.98h-4.68v1.36h3.17c.01,.07,.02,.16,.02,.24,0,.08,0,.2,0,.36,0,1.28-.24,2.26-.73,2.93-.48,.67-1.18,1.01-2.1,1.01-1.01,0-1.77-.43-2.26-1.29-.49-.86-.74-2.19-.74-3.98,0-2.23,.23-3.8,.69-4.71,.46-.91,1.23-1.37,2.32-1.37,.8,0,1.43,.25,1.88,.75,.45,.5,.69,1.2,.72,2.12h1.55c-.01-1.31-.38-2.33-1.09-3.05-.71-.73-1.71-1.09-2.97-1.09-1.65,0-2.86,.55-3.6,1.64m-188.46,13.49h1.6v-16.73h-1.6v16.73Zm98.6,0h1.6v-16.73h-1.6v16.73Z"/>
  <path class="cls-2" d="M302.7,90.18v24.58h12.91v-2.59h-10.06v-9.05h9.3v-2.49h-9.3v-7.9h9.95v-2.56h-12.81Zm19.65,2.41h4.06c1.87,0,3.22,.34,4.06,1.02,.84,.68,1.26,1.77,1.26,3.27s-.47,2.72-1.42,3.46c-.95,.74-2.43,1.11-4.45,1.11h-3.51v-8.86Zm-2.81-2.41v24.58h2.81v-10.92h3.67c1.98,0,3.35,.31,4.12,.93,.76,.62,1.23,1.78,1.38,3.47,.06,.62,.11,1.45,.17,2.51,.1,2.11,.33,3.44,.69,4.01h3.57c-.73-.58-1.18-2.22-1.36-4.9-.07-1.05-.13-1.88-.18-2.47-.16-1.61-.59-2.8-1.31-3.56-.72-.76-1.79-1.21-3.22-1.32,1.63-.39,2.84-1.08,3.62-2.07,.78-.98,1.17-2.3,1.17-3.95,0-2.13-.65-3.71-1.94-4.75-1.3-1.04-3.28-1.56-5.95-1.56h-7.24Zm32.15,0l-5.97,21.18-5.8-21.18h-3.14l7.21,24.58h3.47l7.11-24.58h-2.88Zm5.31,24.58h2.95v-24.58h-2.95v24.58Zm26.95-24.58v24.58h12.91v-2.59h-10.06v-9.05h9.3v-2.49h-9.3v-7.9h9.95v-2.56h-12.8Zm-97.95,1.22c-1.24,1.21-1.86,2.88-1.86,5.02,0,1.11,.18,2.08,.53,2.91,.35,.84,.88,1.56,1.6,2.16,.44,.36,1.7,.91,3.79,1.63,.75,.27,1.33,.47,1.74,.62,1.74,.63,2.86,1.25,3.36,1.88,.5,.62,.75,1.51,.75,2.66,0,1.43-.41,2.56-1.22,3.38-.82,.82-1.94,1.23-3.37,1.23-1.59,0-2.78-.43-3.6-1.28-.81-.85-1.22-2.11-1.22-3.78v-.88h-2.75c0,.09,0,.22-.02,.41,0,.19-.02,.32-.02,.41,0,2.48,.62,4.36,1.85,5.64,1.23,1.28,3.04,1.92,5.45,1.92s4.3-.65,5.65-1.95c1.35-1.3,2.03-3.11,2.03-5.44,0-1.13-.15-2.1-.46-2.91-.31-.81-.78-1.5-1.42-2.06-.53-.47-2.14-1.18-4.83-2.12-.41-.15-.73-.26-.94-.34-1.77-.62-2.91-1.25-3.44-1.88-.52-.64-.79-1.54-.79-2.7,0-1.22,.39-2.2,1.16-2.91,.77-.72,1.83-1.08,3.17-1.08s2.3,.37,3.01,1.13c.71,.75,1.06,1.82,1.06,3.2v.25h2.65c0-.06,0-.17,.02-.31,.01-.14,.02-.25,.02-.31,0-1.97-.59-3.51-1.79-4.63-1.19-1.12-2.83-1.68-4.93-1.68-2.21,0-3.94,.61-5.18,1.81m79.94,1.25c-1.27,2.04-1.9,5.33-1.9,9.89s.64,7.59,1.92,9.68c1.28,2.09,3.25,3.14,5.91,3.14,2.49,0,4.4-.82,5.72-2.47,1.33-1.64,2-4.02,2.04-7.14h-2.85v.38c0,2.12-.39,3.75-1.18,4.89-.79,1.14-1.91,1.72-3.38,1.72-1.82,0-3.13-.78-3.92-2.34-.79-1.56-1.19-4.18-1.19-7.86s.39-6.46,1.16-8.09c.77-1.62,2.03-2.43,3.79-2.43,1.43,0,2.56,.48,3.39,1.44,.83,.96,1.24,2.28,1.24,3.96h2.78v-.31c0-2.4-.64-4.26-1.92-5.56-1.28-1.3-3.1-1.95-5.46-1.95-2.83,0-4.87,1.02-6.14,3.06m36.53-1.25c-1.24,1.21-1.86,2.88-1.86,5.02,0,1.11,.18,2.08,.53,2.91,.35,.84,.89,1.56,1.6,2.16,.43,.36,1.7,.91,3.79,1.63,.75,.27,1.33,.47,1.74,.62,1.74,.63,2.86,1.25,3.36,1.88,.5,.62,.75,1.51,.75,2.66,0,1.43-.41,2.56-1.22,3.38-.82,.82-1.94,1.23-3.37,1.23-1.59,0-2.79-.43-3.6-1.28-.81-.85-1.21-2.11-1.21-3.78v-.88h-2.75c0,.09,0,.22-.02,.41-.01,.19-.02,.32-.02,.41,0,2.48,.61,4.36,1.84,5.64,1.23,1.28,3.04,1.92,5.45,1.92s4.3-.65,5.65-1.95c1.35-1.3,2.03-3.11,2.03-5.44,0-1.13-.15-2.1-.46-2.91-.31-.81-.78-1.5-1.42-2.06-.52-.47-2.13-1.18-4.83-2.12-.41-.15-.73-.26-.94-.34-1.77-.62-2.91-1.25-3.44-1.88-.52-.64-.79-1.54-.79-2.7,0-1.22,.39-2.2,1.16-2.91,.77-.72,1.83-1.08,3.17-1.08s2.3,.37,3.01,1.13c.71,.75,1.07,1.82,1.07,3.2v.25h2.65c0-.06,0-.17,.02-.31,.01-.14,.02-.25,.02-.31,0-1.97-.6-3.51-1.79-4.63-1.19-1.12-2.84-1.68-4.94-1.68-2.21,0-3.94,.61-5.18,1.81m-66.12-33.91l.27,21.09-8.95-21.09h-3.86v24.58h2.78l-.24-21.71,9.09,21.71h3.69v-24.58h-2.78Zm38.13,0v16.54c0,2.12-.4,3.67-1.19,4.66-.79,.99-2.03,1.48-3.7,1.48s-2.82-.45-3.51-1.35c-.69-.9-1.03-2.5-1.03-4.8v-16.54h-2.88v16.04c0,2.08,.09,3.55,.28,4.42,.18,.87,.49,1.58,.93,2.13,.63,.82,1.47,1.45,2.55,1.89,1.07,.44,2.29,.66,3.64,.66s2.49-.2,3.53-.61c1.03-.41,1.9-1.01,2.61-1.81,.58-.66,.99-1.42,1.24-2.28,.24-.85,.37-2.32,.37-4.4v-16.04h-2.81Zm7.42,0v24.58h13.19v-2.65h-10.31v-21.94h-2.88Zm10.46,0v2.52h6.59v22.06h2.95v-22.06h6.19v-2.52h-15.72Zm23.1,2.12l3.44,12.88h-6.87l3.44-12.88Zm-1.84-2.12l-7.04,24.58h2.92l1.88-7.09h8.18l1.96,7.09h2.92l-7.14-24.58h-3.67Zm26.15,0l.27,21.09-8.95-21.09h-3.86v24.58h2.78l-.24-21.71,9.08,21.71h3.69v-24.58h-2.78Zm39.05,0l-5.97,12.1-5.7-12.1h-3.44l7.63,15.07v9.51h2.92v-9.51l7.69-15.07h-3.13Zm-193.13,2.47c-1.27,2.04-1.9,5.33-1.9,9.89s.64,7.59,1.92,9.68c1.28,2.09,3.25,3.14,5.91,3.14,2.49,0,4.4-.82,5.72-2.47,1.32-1.64,2-4.03,2.04-7.14h-2.85v.38c0,2.12-.4,3.75-1.18,4.89-.79,1.14-1.92,1.72-3.38,1.72-1.82,0-3.13-.78-3.92-2.34-.79-1.56-1.19-4.18-1.19-7.86s.39-6.46,1.16-8.09c.77-1.62,2.03-2.43,3.79-2.43,1.43,0,2.56,.48,3.39,1.43,.83,.96,1.24,2.28,1.24,3.96h2.78v-.31c0-2.4-.64-4.26-1.92-5.56-1.28-1.31-3.1-1.95-5.46-1.95-2.83,0-4.87,1.02-6.14,3.06m21.67,18.01c-.79-1.51-1.18-4.24-1.18-8.19s.4-6.66,1.18-8.16c.79-1.51,2.15-2.26,4.09-2.26s3.33,.73,4.11,2.2c.78,1.47,1.16,4.21,1.16,8.22s-.39,6.77-1.16,8.25c-.77,1.47-2.14,2.21-4.11,2.21s-3.3-.75-4.09-2.26m-2.23-18.06c-1.3,2.01-1.95,5.3-1.95,9.87s.65,7.83,1.96,9.85c1.31,2.02,3.41,3.03,6.31,3.03s5.06-.99,6.35-2.98c1.28-1.98,1.92-5.29,1.92-9.91s-.64-7.92-1.93-9.9-3.4-2.98-6.34-2.98-5.02,1-6.32,3.01m40.29-1.2c-1.24,1.21-1.86,2.88-1.86,5.02,0,1.11,.18,2.08,.53,2.91,.35,.84,.89,1.56,1.6,2.16,.44,.36,1.7,.91,3.79,1.63,.75,.27,1.33,.47,1.74,.62,1.74,.63,2.86,1.25,3.36,1.88,.5,.62,.75,1.51,.75,2.66,0,1.44-.41,2.56-1.22,3.39-.82,.82-1.94,1.23-3.37,1.23-1.59,0-2.78-.43-3.59-1.28-.81-.85-1.22-2.11-1.22-3.78v-.88h-2.75c0,.08,0,.22-.02,.41,0,.19-.02,.32-.02,.41,0,2.48,.61,4.36,1.84,5.63,1.23,1.28,3.05,1.92,5.45,1.92s4.3-.65,5.65-1.95c1.35-1.3,2.03-3.11,2.03-5.44,0-1.13-.15-2.1-.46-2.91-.31-.81-.78-1.5-1.41-2.06-.53-.47-2.14-1.18-4.83-2.12-.41-.15-.73-.26-.94-.34-1.77-.62-2.91-1.25-3.44-1.89-.52-.64-.79-1.54-.79-2.7,0-1.22,.39-2.19,1.16-2.91,.77-.72,1.83-1.08,3.17-1.08s2.3,.38,3.01,1.13c.71,.75,1.06,1.82,1.06,3.2v.26h2.65c0-.06,0-.17,.02-.31,0-.15,.02-.25,.02-.31,0-1.97-.59-3.51-1.78-4.63-1.19-1.12-2.84-1.68-4.94-1.68-2.21,0-3.94,.6-5.18,1.81m103.11,1.25c-1.27,2.04-1.9,5.33-1.9,9.89s.64,7.59,1.92,9.68c1.28,2.09,3.25,3.14,5.91,3.14,2.49,0,4.4-.82,5.72-2.47,1.32-1.64,2-4.03,2.04-7.14h-2.85v.38c0,2.12-.4,3.75-1.18,4.89-.79,1.14-1.91,1.72-3.38,1.72-1.82,0-3.13-.78-3.92-2.34-.79-1.56-1.19-4.18-1.19-7.86s.39-6.46,1.16-8.09c.77-1.62,2.03-2.43,3.79-2.43,1.43,0,2.56,.48,3.39,1.43,.82,.96,1.24,2.28,1.24,3.96h2.78v-.31c0-2.4-.64-4.26-1.92-5.56-1.28-1.31-3.1-1.95-5.46-1.95-2.83,0-4.87,1.02-6.14,3.06"/>
  <rect class="cls-2" x="192.18" y="123.69" width="290.23" height=".36"/>
  <path class="cls-1" d="M103.98,161.96c-40.62-.65-73.03-34.1-72.38-74.73,.65-40.62,34.1-73.03,74.73-72.38,20.31,.32,38.56,8.85,51.66,22.37C142.49,16.67,118.03,3.21,90.31,2.77,42.55,2.01,3.22,40.1,2.46,87.85c-.76,47.75,37.33,87.08,85.09,87.84,31.94,.51,60.09-16.37,75.47-41.89-13.72,17.45-35.13,28.53-59.04,28.15"/>
  <path class="cls-3" d="M139.88,51.5h27.1c-12.27-20.51-34.64-34.29-60.28-34.29-17.06,0-32.69,6.09-44.87,16.2,8.55-4.53,18.28-7.12,28.63-7.12,20.33,0,38.29,9.95,49.42,25.21"/>
  <path class="cls-3" d="M137.16,126.97c-11.23,13.26-27.97,21.7-46.7,21.7-10.35,0-20.08-2.59-28.63-7.12,12.17,10.11,27.81,16.2,44.87,16.2,24.16,0,45.47-12.2,58.11-30.78h-27.65Z"/>
  <path class="cls-3" d="M65.34,115.02c-3.85,0-7.42-.63-10.72-1.89-3.3-1.26-6.16-3.05-8.58-5.37-2.42-2.33-4.31-5.06-5.66-8.19-1.35-3.13-2.03-6.58-2.03-10.33s.68-7.2,2.03-10.33c1.35-3.13,3.25-5.86,5.7-8.19,2.44-2.32,5.31-4.12,8.58-5.37,3.28-1.26,6.86-1.89,10.76-1.89,4.32,0,8.23,.75,11.72,2.24,3.49,1.5,6.42,3.69,8.79,6.59l-7.41,6.84c-1.71-1.95-3.61-3.41-5.7-4.38-2.09-.97-4.37-1.46-6.84-1.46-2.32,0-4.46,.38-6.41,1.14-1.95,.76-3.63,1.85-5.06,3.28-1.42,1.42-2.53,3.11-3.31,5.06-.78,1.95-1.18,4.11-1.18,6.48s.39,4.54,1.18,6.48c.78,1.95,1.89,3.63,3.31,5.06,1.43,1.42,3.11,2.52,5.06,3.28,1.95,.76,4.09,1.14,6.41,1.14,2.47,0,4.75-.49,6.84-1.46,2.09-.97,3.99-2.46,5.7-4.45l7.41,6.84c-2.38,2.9-5.31,5.11-8.79,6.62-3.49,1.52-7.42,2.28-11.79,2.28"/>
  <path class="cls-1" d="M86.13,114.16l22.22-49.86h11.39l22.3,49.86h-12.11l-18.23-44.02h4.56l-18.31,44.02h-11.82Zm11.11-10.68l3.06-8.76h25.64l3.14,8.76h-31.84Z"/>
  <polygon class="cls-3" points="147.25 114.16 147.25 64.3 158.79 64.3 158.79 104.76 183.79 104.76 183.79 114.16 147.25 114.16"/>
  <rect class="cls-1" x="190.27" y="64.3" width="11.54" height="49.86"/>
  <polygon class="cls-3" points="213.63 114.16 213.63 64.3 223.17 64.3 244.4 99.49 239.34 99.49 260.21 64.3 269.68 64.3 269.83 114.16 259 114.16 258.93 80.9 260.92 80.9 244.26 108.89 239.06 108.89 222.03 80.9 224.46 80.9 224.46 114.16 213.63 114.16"/>
</svg>